<svg xmlns="http://www.w3.org/2000/svg" width="32" height="32" viewBox="0 0 512 512"><path fill="currentColor" d="M256 24L236 48L248 67.2L248 105.9C253.3 106.2 258.7 106.2 264 105.9L264 67.2L276 48L256 24Z"></path><path fill="currentColor" d="M194.5 110.4L189.5 125.6C238.5 141.9 273.5 141.9 322.5 125.6L317.5 110.4C270.5 126.1 241.5 126.1 194.5 110.4Z"></path><path fill="currentColor" d="M232 152L232 280L248 280L248 152L232 152Z"></path><path fill="currentColor" d="M264 152L264 280L280 280L280 152L264 152Z"></path><path fill="currentColor" d="M212.9 296L204.9 312L307.1 312L299.1 296L212.9 296Z"></path><path fill="currentColor" d="M132.7 328L71.65 440L440.3 440L379.2 328L132.7 328Z"></path><path fill="currentColor" d="M176 344L272 344L272 360L176 360L176 344Z"></path><path fill="currentColor" d="M288 344L336 344L336 360L288 360L288 344Z"></path><path fill="currentColor" d="M176 376L208 376L208 392L176 392L176 376Z"></path><path fill="currentColor" d="M224 376L336 376L336 392L224 392L224 376Z"></path><path fill="currentColor" d="M176 408L240 408L240 424L176 424L176 408Z"></path><path fill="currentColor" d="M37.77 456L27.1 488L484.9 488L474.2 456L37.77 456Z"></path></svg>